{"title":"Little Boy 2015 720p BRRip x264 MP4 Multisubs AAC-CC","uid":12227580,"size":2366244044,"categoryP":"video","categoryS":"hd___movies","magnet":"?xt=urn:btih:57d3837cdf070e50b9cf2d7c72057095d23869b0&amp;dn=Little+Boy+2015+720p+BRRip+x264+MP4+Multisubs+AAC-CC&amp;tr=udp%3A%2F%2Ftracker.openbittorrent.com%3A80&amp;tr=udp%3A%2F%2Fopen.demonii.com%3A1337&amp;tr=udp%3A%2F%2Ftracker.coppersurfer.tk%3A6969&amp;tr=udp%3A%2F%2Fexodus.desync.com%3A6969","seeders":4,"leechers":4,"uploader":"Caveman44","files":37,"time":1439499395,"description":" &lt;a href=&quot;\nhttp://www.imdb.com/title/tt1810683&quot; rel=&quot;nofollow&quot; target=&quot;_NEW&quot;&gt;\nhttp://www.imdb.com/title/tt1810683&lt;/a&gt;\n\nSource: Little.Boy.2015.720p.BluRay.x264-GECKOS Thanks!\n\nSubs ( Subrip ) : Arabic, Brazilian, Bulgarian, Dutch, English HI, Farsi Persian, French, Greek, Malay, Portuguese, Romanian, Spanish, Turkish, Vietnamese.\n\nSubs ( Vobsubs ) : English.\n\nSample and Screens included.\n\nGeneral\nComplete name                            : Little Boy 2015 720p BRRip x264 MP4 Multisubs AAC-CC.mp4\nFormat                                   : MPEG-4\nFormat profile                           : Base Media\nCodec ID                                 : isom\nFile size                                : 2.17 GiB\nDuration                                 : 1h 46mn\nOverall bit rate mode                    : Variable\nOverall bit rate                         : 2 905 Kbps\nEncoded date                             : UTC 2015-08-12 14:01:57\nTagged date                              : UTC 2015-08-12 14:01:57\nWriting application                      : Yamb 2.1.0.0 \n\nVideo\nID                                       : 1\nFormat                                   : AVC\nFormat/Info                              : Advanced Video Codec\nFormat profile                           : &lt;a class=&quot;__cf_email__&quot; href=&quot;/cdn-cgi/l/email-protection&quot; data-cfemail=&quot;0f476668674f433b213e&quot;&gt;[email&amp;#160;protected]&lt;/a&gt;&lt;script data-cfhash='f9e31' type=&quot;text/javascript&quot;&gt;\n/* &lt;![CDATA[ */!function(){try{var t=&quot;currentScript&quot;in document?document.currentScript:function(){for(var t=document.getElementsByTagName(&quot;script&quot;),e=t.length;e--;)if(t[e].getAttribute(&quot;data-cfhash&quot;))return t[e]}();if(t&amp;&amp;t.previousSibling){var e,r,n,i,c=t.previousSibling,a=c.getAttribute(&quot;data-cfemail&quot;);if(a){for(e=&quot;&quot;,r=parseInt(a.substr(0,2),16),n=2;a.length-n;n+=2)i=parseInt(a.substr(n,2),16)^r,e+=String.fromCharCode(i);e=document.createTextNode(e),c.parentNode.replaceChild(e,c)}t.parentNode.removeChild(t);}}catch(u){}}()/* ]]&gt; */&lt;/script&gt;\nFormat settings, CABAC                   : Yes\nFormat settings, ReFrames                : 5 frames\nCodec ID                                 : avc1\nCodec ID/Info                            : Advanced Video Coding\nDuration                                 : 1h 46mn\nBit rate                                 : 2 633 Kbps\nMaximum bit rate                         : 20.9 Mbps\nWidth                                    : 1 280 pixels\nHeight                                   : 536 pixels\nDisplay aspect ratio                     : 2.40:1\nFrame rate mode                          : Variable\nFrame rate                               : 23.976 fps\nMinimum frame rate                       : 15.932 fps\nMaximum frame rate                       : 24.390 fps\nColor space                              : YUV\nChroma subsampling                       : 4:2:0\nBit depth                                : 8 bits\nScan type                                : Progressive\nBits/(Pixel*Frame)                       : 0.160\nStream size                              : 1.88 GiB (87%)\nWriting library                          : x264 core 112\nEncoding settings                        : cabac=1 / ref=5 / deblock=1:0:0 / analyse=0x3:0x113 / me=hex / subme=7 / psy=1 / psy_rd=1.00:0.00 / mixed_ref=1 / me_range=16 / chroma_me=1 / trellis=1 / 8x8dct=1 / cqm=0 / deadzone=21,11 / fast_pskip=1 / chroma_qp_offset=-2 / threads=3 / sliced_threads=0 / nr=0 / decimate=1 / interlaced=0 / constrained_intra=0 / bframes=5 / b_pyramid=2 / b_adapt=2 / b_bias=0 / direct=1 / weightb=1 / open_gop=0 / weightp=2 / keyint=240 / keyint_min=23 / scenecut=40 / intra_refresh=0 / rc_lookahead=50 / rc=abr / mbtree=1 / bitrate=2633 / ratetol=1.0 / qcomp=0.60 / qpmin=3 / qpmax=51 / qpstep=4 / ip_ratio=1.40 / aq=1:1.00\nEncoded date                             : UTC 2015-08-12 19:57:38\nTagged date                              : UTC 2015-08-12 14:05:11\nColor primaries                          : BT.709\nTransfer characteristics                 : BT.709\nMatrix coefficients                      : BT.709\n\nAudio\nID                                       : 2\nFormat                                   : AAC\nFormat/Info                              : Advanced Audio Codec\nFormat profile                           : LC\nCodec ID                                 : 40\nDuration                                 : 1h 46mn\nBit rate mode                            : Variable\nBit rate                                 : 384 Kbps\nMaximum bit rate                         : 754 Kbps\nChannel(s)                               : 6 channels\nChannel positions                        : Front: L C R, Side: L R, LFE\nSampling rate                            : 48.0 KHz\nCompression mode                         : Lossy\nDelay relative to video                  : 83ms\nStream size                              : 293 MiB (13%)\nLanguage                                 : English\nEncoded date                             : UTC 2015-08-12 14:04:36\nTagged date                              : UTC 2015-08-12 14:05:11\n\nEnjoy","torrent":{"xt":"urn:btih:57d3837cdf070e50b9cf2d7c72057095d23869b0","amp;dn":"Little+Boy+2015+720p+BRRip+x264+MP4+Multisubs+AAC-CC","amp;tr":["udp%3A%2F%2Ftracker.openbittorrent.com%3A80","udp%3A%2F%2Fopen.demonii.com%3A1337","udp%3A%2F%2Ftracker.coppersurfer.tk%3A6969","udp%3A%2F%2Fexodus.desync.com%3A6969"],"infoHash":"57d3837cdf070e50b9cf2d7c72057095d23869b0","infoHashBuffer":{"type":"Buffer","data":[87,211,131,124,223,7,14,80,185,207,45,124,114,5,112,149,210,56,105,176]},"announce":[],"urlList":[]}}